<svg width="52" height="52" viewBox="0 0 52 52" fill="none" xmlns="http://www.w3.org/2000/svg">
<rect width="52" height="52" rx="13.9286" fill="white"/>
<path d="M29.476 38.0688C31.0886 38.0688 32.5281 37.5541 33.7945 36.5247C35.0331 35.4952 36.3415 33.8021 37.7197 31.4452L43.0095 22.2615C43.6086 21.2321 43.8633 20.1891 43.7735 19.1326C43.6838 18.076 43.085 17.3581 41.977 16.9789C40.9524 16.5996 39.9314 16.6267 38.9138 17.0601C37.8962 17.4936 37.0848 18.2386 36.4794 19.2951L30.7611 29.2509C30.103 30.4158 29.5184 31.2014 29.0076 31.6077C28.503 31.987 27.9281 32.0683 27.2831 31.8516C26.743 31.6619 26.4754 31.2556 26.4802 30.6325C26.4635 29.9823 26.9146 28.8716 27.8334 27.3004L30.7066 22.2615C31.3119 21.205 31.5666 20.162 31.4707 19.1326C31.3531 18.076 30.7404 17.3581 29.6324 16.9789C28.6079 16.5996 27.5868 16.6267 26.5692 17.0601C25.5516 17.4936 24.7402 18.2386 24.1348 19.2951L18.23 29.6979C17.8637 30.3209 17.3848 30.8898 16.7933 31.4046C16.2018 31.9193 15.5558 32.0683 14.8551 31.8516C14.315 31.6619 14.0273 31.2827 13.9918 30.7138C13.9285 30.1449 14.1095 29.4811 14.5349 28.7226C15.1062 27.6932 15.6692 26.8804 16.2238 26.2845C16.7506 25.6885 17.2587 25.1737 17.748 24.7403C18.2095 24.3069 18.6217 23.8463 18.9845 23.3587C19.3195 22.8711 19.6117 22.2073 19.8612 21.3675C20.117 20.5006 20.1114 19.7421 19.8444 19.0919C19.5559 18.4147 19.094 17.8864 18.4587 17.5071C17.7956 17.1279 17.0192 16.9382 16.1295 16.9382C14.7671 16.9382 13.5657 17.3852 12.5252 18.2792C11.4632 19.1461 10.7946 20.1755 10.5194 21.3675C10.4193 21.801 10.3575 22.3699 10.3339 23.0742C10.3103 23.7786 10.3409 24.4288 10.4257 25.0248L11.1548 29.454C11.291 30.4293 11.4767 31.4317 11.7117 32.4611C11.9251 33.4634 12.2407 34.3845 12.6585 35.2243C13.0485 36.0641 13.5702 36.7549 14.2236 37.2968C14.8832 37.8115 15.7274 38.0688 16.7561 38.0688C18.5355 38.0688 20.0706 37.6218 21.3613 36.7279C22.6242 35.8339 23.7992 34.3574 24.8862 32.2986H25.3032C25.2769 33.9782 25.5557 35.3598 26.1396 36.4434C26.7235 37.527 27.8357 38.0688 29.476 38.0688Z" fill="#0ED1B2"/>
</svg>
