<svg width="20" height="20" viewBox="0 0 20 20" fill="none" xmlns="http://www.w3.org/2000/svg">
<g clip-path="url(#clip0_192_7812)">
<path d="M10.1308 9.71202L3.19141 17.2436C3.19206 17.245 3.19206 17.247 3.19271 17.2483C3.40584 18.0661 4.13583 18.668 5.00269 18.668C5.34943 18.668 5.67467 18.572 5.95363 18.404L5.97579 18.3907L13.7866 13.7818L10.1308 9.71202Z" fill="#EA4335"/>
<path d="M17.1506 8.42981L17.1441 8.42515L13.7718 6.42627L9.97266 9.88348L13.7855 13.7812L17.1396 11.8024C17.7275 11.4771 18.127 10.8433 18.127 10.1128C18.127 9.38626 17.7333 8.75574 17.1506 8.42981Z" fill="#FBBC04"/>
<path d="M3.19083 2.94893C3.14911 3.10623 3.12695 3.27152 3.12695 3.44215V16.7511C3.12695 16.9217 3.14911 17.087 3.19148 17.2437L10.3688 9.90467L3.19083 2.94893Z" fill="#4285F4"/>
<path d="M10.1823 10.0967L13.7736 6.42486L5.97187 1.79925C5.68835 1.62529 5.35725 1.52531 5.00334 1.52531C4.13648 1.52531 3.40519 2.12851 3.19206 2.94699C3.19206 2.94765 3.19141 2.94832 3.19141 2.94899L10.1823 10.0967Z" fill="#34A853"/>
</g>
<defs>
<clipPath id="clip0_192_7812">
<rect width="18.5714" height="17.1429" fill="white" transform="translate(0.714844 1.42871)"/>
</clipPath>
</defs>
</svg>
