<svg width="77" height="23" viewBox="0 0 77 23" fill="none" xmlns="http://www.w3.org/2000/svg">
<path d="M17.9096 22.963C19.1757 22.963 20.3058 22.5589 21.3 21.7507C22.2724 20.9425 23.2997 19.6132 24.3817 17.7628L28.5347 10.5526C29.0051 9.74443 29.2051 8.92557 29.1346 8.09609C29.0642 7.2666 28.594 6.70298 27.7242 6.40521C26.9198 6.10745 26.1181 6.12872 25.3192 6.46902C24.5203 6.80932 23.8832 7.39422 23.408 8.2237L18.9185 16.04C18.4018 16.9546 17.9429 17.5714 17.5418 17.8904C17.1457 18.1882 16.6944 18.252 16.1879 18.0818C15.7639 17.9329 15.5538 17.6139 15.5576 17.1247C15.5445 16.6143 15.8986 15.7423 16.6199 14.5087L18.8757 10.5526C19.351 9.72316 19.5509 8.90431 19.4756 8.09609C19.3833 7.2666 18.9023 6.70298 18.0324 6.40521C17.228 6.10745 16.4263 6.12872 15.6274 6.46902C14.8285 6.80932 14.1915 7.39422 13.7162 8.2237L9.08026 16.391C8.7927 16.8801 8.41673 17.3268 7.95235 17.7309C7.48797 18.135 6.98074 18.252 6.43066 18.0818C6.00663 17.9329 5.7807 17.6352 5.75284 17.1885C5.70316 16.7419 5.84529 16.2208 6.17924 15.6253C6.62777 14.8171 7.06976 14.179 7.50521 13.7111C7.91883 13.2432 8.31773 12.8391 8.70189 12.4987C9.06422 12.1584 9.38781 11.7969 9.67265 11.414C9.93566 11.0312 10.1651 10.5101 10.361 9.85077C10.5618 9.17017 10.5574 8.57464 10.3478 8.06419C10.1213 7.53246 9.75865 7.11772 9.25986 6.81996C8.73924 6.52219 8.12968 6.37331 7.43117 6.37331C6.36158 6.37331 5.41834 6.72425 4.60145 7.42612C3.76764 8.10672 3.24271 8.91494 3.02666 9.85077C2.94809 10.1911 2.89955 10.6377 2.88102 11.1907C2.8625 11.7437 2.88653 12.2542 2.95313 12.7221L3.52548 16.1995C3.63248 16.9652 3.77822 17.7522 3.96272 18.5604C4.13029 19.3473 4.37807 20.0705 4.70608 20.7298C5.01225 21.3891 5.42184 21.9315 5.93482 22.3569C6.45272 22.761 7.1155 22.963 7.92314 22.963C9.32016 22.963 10.5253 22.6121 11.5387 21.9102C12.5302 21.2084 13.4527 20.0492 14.3061 18.4328H14.6335C14.6128 19.7514 14.8317 20.8361 15.2901 21.6869C15.7486 22.5377 16.6217 22.963 17.9096 22.963Z" fill="#0AD2B2"/>
<path d="M66.9018 12.7485L71.5773 7.35609H77.0008L70.985 14.1823L76.6268 22.5358H71.7954L68.0862 17.1434L66.9018 18.5461V22.5358H62.8809V0H66.9018V12.7485Z" fill="#303030"/>
<path d="M53.444 22.5669C52.0102 22.5669 50.7322 22.2448 49.6101 21.6006C48.5088 20.9564 47.6464 20.0629 47.023 18.92C46.3996 17.7563 46.0879 16.4472 46.0879 14.9926C46.0879 13.4964 46.3996 12.1769 47.023 11.034C47.6464 9.87033 48.5088 8.9664 49.6101 8.32222C50.7322 7.67805 52.0102 7.35596 53.444 7.35596C54.857 7.35596 56.0311 7.64688 56.9662 8.22871C57.9013 8.81055 58.5558 9.382 58.9299 9.94306C59.3247 10.5041 59.6156 11.0028 59.8026 11.4392C60.1559 12.2081 60.3637 13.0081 60.426 13.8393C60.4884 14.6705 60.4988 15.4497 60.4572 16.177V16.4264H49.9218C50.0465 16.9667 50.2854 17.455 50.6387 17.8914C50.992 18.307 51.4179 18.6395 51.9167 18.8888C52.4154 19.1174 52.9245 19.2317 53.444 19.2317C54.0882 19.2317 54.6284 19.1486 55.0648 18.9823C55.522 18.7953 55.8752 18.5875 56.1246 18.3589C56.3739 18.1096 56.5714 17.8706 56.7168 17.642L59.9897 18.9511C59.5741 19.9486 58.8052 20.8006 57.6831 21.5071C56.561 22.2136 55.1479 22.5669 53.444 22.5669ZM56.748 13.7146C56.6233 13.112 56.4259 12.5821 56.1558 12.1249C55.8856 11.6678 55.522 11.3145 55.0648 11.0652C54.6077 10.8158 54.0674 10.6911 53.444 10.6911C52.5504 10.6911 51.7816 10.9717 51.1374 11.5327C50.514 12.073 50.1088 12.8003 49.9218 13.7146H56.748Z" fill="#303030"/>
<path d="M37.1862 22.5669C35.7524 22.5669 34.4744 22.2448 33.3523 21.6006C32.2509 20.9564 31.3886 20.0629 30.7652 18.92C30.1418 17.7563 29.8301 16.4472 29.8301 14.9926C29.8301 13.4964 30.1418 12.1769 30.7652 11.034C31.3886 9.87033 32.2509 8.9664 33.3523 8.32222C34.4744 7.67805 35.7524 7.35596 37.1862 7.35596C38.5992 7.35596 39.7733 7.64688 40.7084 8.22871C41.6435 8.81055 42.298 9.382 42.6721 9.94306C43.0669 10.5041 43.3578 11.0028 43.5448 11.4392C43.8981 12.2081 44.1059 13.0081 44.1682 13.8393C44.2306 14.6705 44.2409 15.4497 44.1994 16.177V16.4264H33.664C33.7887 16.9667 34.0276 17.455 34.3809 17.8914C34.7341 18.307 35.1601 18.6395 35.6588 18.8888C36.1576 19.1174 36.6667 19.2317 37.1862 19.2317C37.8303 19.2317 38.3706 19.1486 38.807 18.9823C39.2642 18.7953 39.6174 18.5875 39.8668 18.3589C40.1161 18.1096 40.3135 17.8706 40.459 17.642L43.7318 18.9511C43.3162 19.9486 42.5474 20.8006 41.4253 21.5071C40.3032 22.2136 38.8901 22.5669 37.1862 22.5669ZM40.4902 13.7146C40.3655 13.112 40.1681 12.5821 39.8979 12.1249C39.6278 11.6678 39.2642 11.3145 38.807 11.0652C38.3498 10.8158 37.8096 10.6911 37.1862 10.6911C36.2926 10.6911 35.5238 10.9717 34.8796 11.5327C34.2562 12.073 33.851 12.8003 33.664 13.7146H40.4902Z" fill="#303030"/>
</svg>
