<svg width="77" height="23" viewBox="0 0 77 23" fill="none" xmlns="http://www.w3.org/2000/svg">
<path d="M17.9096 22.963C19.1757 22.963 20.3058 22.5589 21.3 21.7507C22.2724 20.9425 23.2997 19.6132 24.3817 17.7628L28.5347 10.5526C29.0051 9.74443 29.2051 8.92557 29.1346 8.09609C29.0642 7.2666 28.594 6.70298 27.7242 6.40521C26.9198 6.10745 26.1181 6.12872 25.3192 6.46902C24.5203 6.80932 23.8832 7.39422 23.408 8.2237L18.9185 16.04C18.4018 16.9546 17.9429 17.5714 17.5418 17.8904C17.1457 18.1882 16.6944 18.252 16.1879 18.0818C15.7639 17.9329 15.5538 17.6139 15.5576 17.1247C15.5445 16.6143 15.8986 15.7423 16.6199 14.5087L18.8757 10.5526C19.351 9.72316 19.5509 8.90431 19.4756 8.09609C19.3833 7.2666 18.9023 6.70298 18.0324 6.40521C17.228 6.10745 16.4263 6.12872 15.6274 6.46902C14.8285 6.80932 14.1915 7.39422 13.7162 8.2237L9.08026 16.391C8.7927 16.8801 8.41673 17.3268 7.95235 17.7309C7.48797 18.135 6.98074 18.252 6.43066 18.0818C6.00663 17.9329 5.7807 17.6352 5.75284 17.1885C5.70316 16.7419 5.84529 16.2208 6.17924 15.6253C6.62777 14.8171 7.06976 14.179 7.50521 13.7111C7.91883 13.2432 8.31773 12.8391 8.70189 12.4987C9.06422 12.1584 9.38781 11.7969 9.67265 11.414C9.93566 11.0312 10.1651 10.5101 10.361 9.85077C10.5618 9.17017 10.5574 8.57464 10.3478 8.06419C10.1213 7.53246 9.75865 7.11772 9.25986 6.81996C8.73924 6.52219 8.12968 6.37331 7.43117 6.37331C6.36158 6.37331 5.41834 6.72425 4.60145 7.42612C3.76764 8.10672 3.24271 8.91494 3.02666 9.85077C2.94809 10.1911 2.89955 10.6377 2.88102 11.1907C2.8625 11.7437 2.88653 12.2542 2.95313 12.7221L3.52548 16.1995C3.63248 16.9652 3.77822 17.7522 3.96272 18.5604C4.13029 19.3473 4.37807 20.0705 4.70608 20.7298C5.01225 21.3891 5.42184 21.9315 5.93482 22.3569C6.45272 22.761 7.1155 22.963 7.92314 22.963C9.32016 22.963 10.5253 22.6121 11.5387 21.9102C12.5302 21.2084 13.4527 20.0492 14.3061 18.4328H14.6335C14.6128 19.7514 14.8317 20.8361 15.2901 21.6869C15.7486 22.5377 16.6217 22.963 17.9096 22.963Z" fill="white"/>
<path d="M66.8998 12.7485L71.5753 7.35609H76.9989L70.9831 14.1823L76.6248 22.5358H71.7935L68.0843 17.1434L66.8998 18.5461V22.5358H62.8789V0H66.8998V12.7485Z" fill="#303030"/>
<path d="M53.442 22.5669C52.0082 22.5669 50.7302 22.2448 49.6081 21.6006C48.5068 20.9564 47.6444 20.0629 47.021 18.92C46.3976 17.7563 46.0859 16.4472 46.0859 14.9926C46.0859 13.4964 46.3976 12.1769 47.021 11.034C47.6444 9.87033 48.5068 8.9664 49.6081 8.32222C50.7302 7.67805 52.0082 7.35596 53.442 7.35596C54.8551 7.35596 56.0291 7.64688 56.9642 8.22871C57.8993 8.81055 58.5539 9.382 58.9279 9.94306C59.3227 10.5041 59.6137 11.0028 59.8007 11.4392C60.1539 12.2081 60.3617 13.0081 60.4241 13.8393C60.4864 14.6705 60.4968 15.4497 60.4552 16.177V16.4264H49.9198C50.0445 16.9667 50.2835 17.455 50.6367 17.8914C50.99 18.307 51.416 18.6395 51.9147 18.8888C52.4134 19.1174 52.9225 19.2317 53.442 19.2317C54.0862 19.2317 54.6265 19.1486 55.0629 18.9823C55.52 18.7953 55.8733 18.5875 56.1226 18.3589C56.372 18.1096 56.5694 17.8706 56.7149 17.642L59.9877 18.9511C59.5721 19.9486 58.8032 20.8006 57.6811 21.5071C56.559 22.2136 55.146 22.5669 53.442 22.5669ZM56.746 13.7146C56.6214 13.112 56.4239 12.5821 56.1538 12.1249C55.8837 11.6678 55.52 11.3145 55.0629 11.0652C54.6057 10.8158 54.0654 10.6911 53.442 10.6911C52.5485 10.6911 51.7796 10.9717 51.1355 11.5327C50.5121 12.073 50.1069 12.8003 49.9198 13.7146H56.746Z" fill="#303030"/>
<path d="M37.1842 22.5669C35.7504 22.5669 34.4724 22.2448 33.3503 21.6006C32.249 20.9564 31.3866 20.0629 30.7632 18.92C30.1398 17.7563 29.8281 16.4472 29.8281 14.9926C29.8281 13.4964 30.1398 12.1769 30.7632 11.034C31.3866 9.87033 32.249 8.9664 33.3503 8.32222C34.4724 7.67805 35.7504 7.35596 37.1842 7.35596C38.5972 7.35596 39.7713 7.64688 40.7064 8.22871C41.6415 8.81055 42.2961 9.382 42.6701 9.94306C43.0649 10.5041 43.3558 11.0028 43.5429 11.4392C43.8961 12.2081 44.1039 13.0081 44.1663 13.8393C44.2286 14.6705 44.239 15.4497 44.1974 16.177V16.4264H33.662C33.7867 16.9667 34.0257 17.455 34.3789 17.8914C34.7322 18.307 35.1582 18.6395 35.6569 18.8888C36.1556 19.1174 36.6647 19.2317 37.1842 19.2317C37.8284 19.2317 38.3687 19.1486 38.805 18.9823C39.2622 18.7953 39.6155 18.5875 39.8648 18.3589C40.1142 18.1096 40.3116 17.8706 40.4571 17.642L43.7299 18.9511C43.3143 19.9486 42.5454 20.8006 41.4233 21.5071C40.3012 22.2136 38.8882 22.5669 37.1842 22.5669ZM40.4882 13.7146C40.3635 13.112 40.1661 12.5821 39.896 12.1249C39.6259 11.6678 39.2622 11.3145 38.805 11.0652C38.3479 10.8158 37.8076 10.6911 37.1842 10.6911C36.2907 10.6911 35.5218 10.9717 34.8776 11.5327C34.2542 12.073 33.849 12.8003 33.662 13.7146H40.4882Z" fill="#303030"/>
</svg>
