<svg width="16" height="18" viewBox="0 0 16 18" fill="none" xmlns="http://www.w3.org/2000/svg">
<g clip-path="url(#clip0_192_7805)">
<path d="M12.9162 8.95891C12.9248 8.30184 13.1036 7.65758 13.4358 7.08608C13.7681 6.51458 14.243 6.03442 14.8164 5.69026C14.4521 5.18237 13.9716 4.76439 13.4129 4.46953C12.8543 4.17467 12.2329 4.01105 11.5981 3.99166C10.2441 3.85289 8.93136 4.7827 8.24134 4.7827C7.53799 4.7827 6.47563 4.00544 5.33163 4.02841C4.59167 4.05175 3.87051 4.26183 3.23843 4.63817C2.60636 5.01452 2.08491 5.5443 1.7249 6.17589C0.16546 8.81188 1.32866 12.6859 2.8225 14.8167C3.56991 15.86 4.4434 17.0255 5.58637 16.9842C6.70483 16.9389 7.12255 16.2879 8.47261 16.2879C9.81015 16.2879 10.2021 16.9842 11.3682 16.9579C12.5684 16.9389 13.3245 15.9099 14.0457 14.8567C14.5827 14.1132 14.9959 13.2916 15.2701 12.4221C14.5728 12.1342 13.9778 11.6523 13.5592 11.0364C13.1406 10.4206 12.917 9.69803 12.9162 8.95891Z" fill="white"/>
<path d="M10.7116 2.59072C11.366 1.82379 11.6884 0.838027 11.6103 -0.157227C10.6106 -0.0547129 9.68709 0.411771 9.02387 1.14928C8.69961 1.50957 8.45125 1.92872 8.29301 2.38278C8.13477 2.83683 8.06974 3.31688 8.10164 3.79549C8.60169 3.80051 9.09638 3.6947 9.54847 3.48601C10.0006 3.27733 10.3983 2.97121 10.7116 2.59072Z" fill="white"/>
<path d="M4.58398 7.14404L7.85779 10.7155L11.1316 7.14404" stroke="white" stroke-width="1.42857" stroke-linecap="round" stroke-linejoin="round"/>
</g>
<defs>
<clipPath id="clip0_192_7805">
<rect width="15.7143" height="17.1429" fill="white"/>
</clipPath>
</defs>
</svg>
